<?xml version="1.0" encoding="iso-8859-1"?>
<!-- Generator: Adobe Illustrator 19.0.0, SVG Export Plug-In . SVG Version: 6.00 Build 0)  -->
<svg version="1.1" id="Layer_1" xmlns="http://www.w3.org/2000/svg" xmlns:xlink="http://www.w3.org/1999/xlink" x="0px" y="0px"
	 viewBox="0 0 512 512" style="enable-background:new 0 0 512 512;" xml:space="preserve">
<path style="fill:#FAD05B;" d="M459.773,220.306c-3.872-4.718-9.653-7.453-15.757-7.453H218.354
	c-16.423,0-29.737-13.314-29.737-29.737l0,0c0-11.271-9.136-20.407-20.407-20.407H69.477c-32.738,0-59.278,26.54-59.278,59.278
	v68.024c0,32.738,26.54,59.278,59.278,59.278h98.732c11.271,0,20.407-9.136,20.407-20.407l0,0c0-16.423,13.314-29.737,29.737-29.737
	h263.023c17.207,0,26.671-20.007,15.757-33.309L459.773,220.306z M72.587,275.241c-10.626,0-19.242-8.614-19.242-19.242
	c0-10.626,8.614-19.242,19.242-19.242s19.242,8.614,19.242,19.242C91.829,266.626,83.213,275.241,72.587,275.241z"/>
<path d="M168.21,359.489H69.477C31.167,359.489,0,328.322,0,290.012v-68.024c0-38.31,31.167-69.477,69.477-69.477h98.732
	c16.876,0,30.606,13.73,30.606,30.606c0,10.773,8.764,19.537,19.537,19.537h225.664c9.192,0,17.81,4.076,23.641,11.182l0,0
	l37.358,45.532c7.576,9.233,9.11,21.676,4.002,32.473c-5.107,10.797-15.699,17.505-27.644,17.505H218.353
	c-10.773,0-19.537,8.764-19.537,19.537C198.816,345.759,185.086,359.489,168.21,359.489z M69.477,172.908
	c-27.062,0-49.079,22.017-49.079,49.079v68.024c0,27.062,22.017,49.079,49.079,49.079h98.732c5.629,0,10.208-4.579,10.208-10.208
	c0-22.02,17.915-39.936,39.936-39.936h263.024c5.982,0,8.557-4.461,9.204-5.828s2.462-6.188-1.333-10.812l-37.358-45.532l0,0
	c-1.942-2.366-4.811-3.724-7.872-3.724H218.353c-22.02,0-39.936-17.915-39.936-39.936c0-5.629-4.579-10.208-10.208-10.208H69.477
	V172.908z M72.587,285.44c-16.234,0-29.44-13.207-29.44-29.441s13.207-29.441,29.44-29.441s29.441,13.207,29.441,29.441
	S88.82,285.44,72.587,285.44z M72.587,246.957c-4.985,0-9.042,4.056-9.042,9.043c0,4.986,4.056,9.043,9.042,9.043
	c4.986,0,9.043-4.056,9.043-9.043C81.63,251.014,77.573,246.957,72.587,246.957z"/>
<path d="M382.194,272.029H217.77c-5.633,0-10.199-4.566-10.199-10.199s4.566-10.199,10.199-10.199h164.424
	c5.633,0,10.199,4.566,10.199,10.199S387.827,272.029,382.194,272.029z"/>
<path d="M438.169,272.029h-12.827c-5.633,0-10.199-4.566-10.199-10.199s4.566-10.199,10.199-10.199h12.827
	c5.633,0,10.199,4.566,10.199,10.199S443.802,272.029,438.169,272.029z"/>
<path d="M138.708,320.764c-5.633,0-10.199-4.566-10.199-10.199v-109.13c0-5.633,4.566-10.199,10.199-10.199
	c5.633,0,10.199,4.566,10.199,10.199v109.13C148.907,316.198,144.341,320.764,138.708,320.764z"/>
<g>
</g>
<g>
</g>
<g>
</g>
<g>
</g>
<g>
</g>
<g>
</g>
<g>
</g>
<g>
</g>
<g>
</g>
<g>
</g>
<g>
</g>
<g>
</g>
<g>
</g>
<g>
</g>
<g>
</g>
</svg>
