<?xml version="1.0" encoding="iso-8859-1"?>
<!-- Generator: Adobe Illustrator 19.0.0, SVG Export Plug-In . SVG Version: 6.00 Build 0)  -->
<svg version="1.1" id="Layer_1" xmlns="http://www.w3.org/2000/svg" xmlns:xlink="http://www.w3.org/1999/xlink" x="0px" y="0px"
	 viewBox="0 0 512 512" style="enable-background:new 0 0 512 512;" xml:space="preserve">
<g>
	<polygon style="fill:#FAD05B;" points="159.995,247.148 18.37,207.657 90.544,465.033 181.783,465.033 	"/>
	<path style="fill:#FAD05B;" d="M130.036,46.967c-66.184,0-119.837,53.653-119.837,119.837S63.852,286.64,130.036,286.64
		c29.238,0,148.181-23.389,226.936-49.501V96.467C278.216,70.356,159.274,46.967,130.036,46.967z"/>
</g>
<path style="fill:#E07743;" d="M398.305,112.265c-11.484-5.265-25.613-10.585-41.333-15.798V237.14
	c15.721-5.212,29.849-10.533,41.333-15.798V112.265z"/>
<circle style="fill:#B3B3B3;" cx="134.12" cy="165.441" r="68.089"/>
<path d="M402.556,102.994c-11.282-5.172-25.54-10.625-42.375-16.207c-80.352-26.641-200.278-50.019-230.146-50.019
	C58.333,36.768,0,95.101,0,166.804c0,18.67,3.962,36.43,11.078,52.492c0.048,0.234,0.094,0.467,0.159,0.701l69.486,247.79
	c1.234,4.402,5.249,7.445,9.82,7.445h91.24c2.881,0,5.629-1.219,7.563-3.356c1.934-2.137,2.873-4.992,2.587-7.858l-17.244-172.439
	c50.534-8.369,128.104-25.731,185.494-44.758c16.838-5.582,31.094-11.035,42.375-16.207c3.625-1.661,5.949-5.284,5.949-9.271
	V112.265C408.505,108.278,406.181,104.655,402.556,102.994z M130.036,57.167c27.724,0,140.469,22.318,216.737,46.707v125.86
	c-76.268,24.389-189.012,46.707-216.737,46.707c-60.454,0-109.637-49.184-109.637-109.637S69.582,57.167,130.036,57.167z
	 M170.513,454.833H98.276L45.094,265.184c22.802,19.714,52.503,31.654,84.942,31.654c5.431,0,13.852-0.776,24.458-2.201
	L170.513,454.833z M388.106,214.699c-6.184,2.639-13.181,5.36-20.935,8.14V110.767c7.754,2.781,14.75,5.501,20.935,8.141V214.699z"
	/>
<path d="M134.121,243.73c43.168,0,78.288-35.12,78.288-78.288s-35.12-78.288-78.288-78.288s-78.288,35.12-78.288,78.288
	C55.832,208.61,90.952,243.73,134.121,243.73z M134.121,107.553c31.92,0,57.89,25.969,57.89,57.89s-25.969,57.89-57.89,57.89
	s-57.89-25.969-57.89-57.89C76.231,133.522,102.2,107.553,134.121,107.553z"/>
<path d="M448.692,149.767h53.109c5.633,0,10.199-4.566,10.199-10.199s-4.566-10.199-10.199-10.199h-53.109
	c-5.633,0-10.199,4.566-10.199,10.199S443.059,149.767,448.692,149.767z"/>
<path d="M501.801,178.393h-53.109c-5.633,0-10.199,4.566-10.199,10.199c0,5.633,4.566,10.199,10.199,10.199h53.109
	c5.633,0,10.199-4.566,10.199-10.199C512,182.959,507.434,178.393,501.801,178.393z"/>
<path d="M106.8,175.726c5.633,0,10.199-4.566,10.199-10.199c0-9.488,7.719-17.207,17.207-17.207c5.633,0,10.199-4.566,10.199-10.199
	c0-5.633-4.566-10.199-10.199-10.199c-20.736,0-37.605,16.869-37.605,37.605C96.601,171.16,101.167,175.726,106.8,175.726z"/>
<path d="M135.097,365.005c-5.607,0.553-9.703,5.545-9.15,11.151l4.833,49.023c0.519,5.266,4.955,9.2,10.138,9.2
	c0.335,0,0.672-0.016,1.013-0.05c5.606-0.553,9.702-5.545,9.15-11.151l-4.833-49.023
	C145.695,368.549,140.704,364.448,135.097,365.005z"/>
<path d="M121.247,328.494l0.806,8.171c0.519,5.266,4.955,9.2,10.138,9.2c0.335,0,0.673-0.017,1.013-0.05
	c5.605-0.553,9.702-5.545,9.15-11.151l-0.806-8.171c-0.553-5.605-5.541-9.695-11.151-9.15
	C124.791,317.896,120.694,322.888,121.247,328.494z"/>
<g>
</g>
<g>
</g>
<g>
</g>
<g>
</g>
<g>
</g>
<g>
</g>
<g>
</g>
<g>
</g>
<g>
</g>
<g>
</g>
<g>
</g>
<g>
</g>
<g>
</g>
<g>
</g>
<g>
</g>
</svg>
