<?xml version="1.0" encoding="iso-8859-1"?>
<!-- Generator: Adobe Illustrator 19.0.0, SVG Export Plug-In . SVG Version: 6.00 Build 0)  -->
<svg version="1.1" id="Layer_1" xmlns="http://www.w3.org/2000/svg" xmlns:xlink="http://www.w3.org/1999/xlink" x="0px" y="0px"
	 viewBox="0 0 512 512" style="enable-background:new 0 0 512 512;" xml:space="preserve">
<rect x="68.407" y="10.199" style="fill:#B3B3B3;" width="375.198" height="442.758"/>
<rect x="114.65" y="54.89" style="fill:#CCCCCC;" width="282.702" height="353.372"/>
<g>
	<polygon style="fill:#FAD05B;" points="145.313,452.953 90.228,452.953 90.228,501.801 	"/>
	<polygon style="fill:#FAD05B;" points="421.773,501.801 421.773,452.953 366.688,452.953 	"/>
</g>
<circle style="fill:#999999;" cx="256.001" cy="228.462" r="70.375"/>
<circle style="fill:#FAD05B;" cx="256.001" cy="228.462" r="26.518"/>
<path d="M443.6,0H68.401c-5.633,0-10.199,4.566-10.199,10.199v442.753c0,5.633,4.566,10.199,10.199,10.199h11.627v38.65
	c0,4.014,2.355,7.655,6.015,9.302c1.341,0.603,2.766,0.898,4.182,0.898c2.448,0,4.866-0.881,6.769-2.568l52.188-46.28h213.635
	l52.188,46.28c1.903,1.688,4.32,2.568,6.769,2.568c1.416,0,2.84-0.295,4.182-0.898c3.661-1.647,6.016-5.287,6.016-9.302v-38.65
	h11.626c5.632,0,10.199-4.566,10.199-10.199V10.199C453.799,4.566,449.232,0,443.6,0z M100.427,479.124v-15.973h18.012
	L100.427,479.124z M411.574,479.125l-18.012-15.973h18.012V479.125z M78.601,442.753V20.398h354.799v422.354H78.601z"/>
<path d="M114.652,418.461h282.697c5.632,0,10.199-4.566,10.199-10.199V54.89c0-5.633-4.567-10.199-10.199-10.199H114.652
	c-5.633,0-10.199,4.566-10.199,10.199v353.371C104.453,413.895,109.019,418.461,114.652,418.461z M124.851,65.089H387.15v332.972
	H124.851V65.089z"/>
<path d="M256.001,147.888c-44.429,0-80.574,36.145-80.574,80.574s36.145,80.574,80.574,80.574s80.574-36.145,80.574-80.574
	S300.429,147.888,256.001,147.888z M299.335,213.31c1.4,4.31,5.398,7.051,9.698,7.051c1.043,0,2.106-0.162,3.154-0.502l3.206-1.041
	c0.509,3.141,0.783,6.36,0.783,9.644c0,2.574-0.181,5.105-0.496,7.594l-2.863-0.93c-5.354-1.74-11.111,1.19-12.852,6.548
	c-1.74,5.358,1.191,11.111,6.549,12.852l3.187,1.035c-2.621,5.173-5.964,9.916-9.901,14.098l-1.752-2.411
	c-3.312-4.558-9.69-5.567-14.246-2.256c-4.557,3.311-5.567,9.689-2.256,14.246l1.969,2.711c-5.06,2.614-10.532,4.53-16.296,5.622
	v-3.014c0-5.633-4.567-10.199-10.199-10.199c-5.633,0-10.199,4.566-10.199,10.199v3.38c-5.81-0.893-11.346-2.627-16.487-5.063
	l1.771-2.437c3.311-4.557,2.3-10.936-2.257-14.246c-4.556-3.311-10.936-2.3-14.246,2.257l-1.964,2.704
	c-4.082-4.051-7.586-8.682-10.382-13.757l2.861-0.929c5.357-1.741,8.289-7.495,6.548-12.852c-1.74-5.358-7.495-8.291-12.852-6.548
	l-3.206,1.041c-0.506-3.142-0.78-6.362-0.78-9.646c0-2.574,0.181-5.105,0.496-7.594l2.863,0.93c1.047,0.34,2.108,0.502,3.154,0.502
	c4.299,0,8.298-2.741,9.698-7.051c1.741-5.357-1.191-11.111-6.549-12.852l-3.187-1.035c2.621-5.172,5.965-9.915,9.901-14.098
	l1.751,2.411c1.996,2.747,5.106,4.205,8.26,4.205c2.079,0,4.177-0.633,5.987-1.948c4.557-3.312,5.567-9.689,2.256-14.246
	l-1.969-2.711c5.06-2.614,10.532-4.53,16.296-5.622v3.014c0,5.633,4.566,10.199,10.199,10.199c5.632,0,10.199-4.566,10.199-10.199
	v-3.38c5.81,0.893,11.346,2.627,16.487,5.063l-1.771,2.437c-3.311,4.557-2.3,10.936,2.258,14.246
	c1.809,1.316,3.907,1.948,5.986,1.948c3.154,0,6.264-1.458,8.26-4.205l1.963-2.703c4.082,4.051,7.586,8.682,10.381,13.756
	l-2.86,0.929C300.526,202.199,297.595,207.953,299.335,213.31z"/>
<path d="M256.001,191.745c-20.246,0-36.717,16.471-36.717,36.717s16.471,36.717,36.717,36.717s36.717-16.471,36.717-36.717
	S276.247,191.745,256.001,191.745z M256.001,244.781c-8.998,0-16.319-7.321-16.319-16.319s7.321-16.319,16.319-16.319
	c8.998,0,16.319,7.321,16.319,16.319S264.998,244.781,256.001,244.781z"/>
<path d="M313.116,365.131h-10.199c-5.632,0-10.199,4.566-10.199,10.199s4.567,10.199,10.199,10.199h10.199
	c5.632,0,10.199-4.566,10.199-10.199S318.748,365.131,313.116,365.131z"/>
<path d="M266.2,365.131H149.929c-5.633,0-10.199,4.566-10.199,10.199s4.566,10.199,10.199,10.199H266.2
	c5.632,0,10.199-4.566,10.199-10.199S271.832,365.131,266.2,365.131z"/>
<g>
</g>
<g>
</g>
<g>
</g>
<g>
</g>
<g>
</g>
<g>
</g>
<g>
</g>
<g>
</g>
<g>
</g>
<g>
</g>
<g>
</g>
<g>
</g>
<g>
</g>
<g>
</g>
<g>
</g>
</svg>
