<?xml version="1.0" encoding="iso-8859-1"?>
<!-- Generator: Adobe Illustrator 19.0.0, SVG Export Plug-In . SVG Version: 6.00 Build 0)  -->
<svg version="1.1" id="Layer_1" xmlns="http://www.w3.org/2000/svg" xmlns:xlink="http://www.w3.org/1999/xlink" x="0px" y="0px"
	 viewBox="0 0 512 512" style="enable-background:new 0 0 512 512;" xml:space="preserve">
<rect x="10.199" y="97.668" style="fill:#CCCCCC;" width="415.893" height="316.665"/>
<path style="fill:#B3B3B3;" d="M484.708,173.986l-58.616,3.126v-52.491l58.616,3.126c9.584,0.511,17.093,8.431,17.093,18.028v10.182
	C501.801,165.554,494.292,173.475,484.708,173.986z"/>
<path d="M77.933,204.262c-5.632,0-10.199,4.566-10.199,10.199v156.298c0,5.633,4.567,10.199,10.199,10.199
	s10.199-4.566,10.199-10.199V214.462C88.132,208.829,83.566,204.262,77.933,204.262z"/>
<path d="M77.933,156.065c-5.632,0-10.199,4.566-10.199,10.199v12.867c0,5.633,4.567,10.199,10.199,10.199
	s10.199-4.566,10.199-10.199v-12.867C88.132,160.631,83.566,156.065,77.933,156.065z"/>
<path d="M148.038,156.065c-5.632,0-10.199,4.566-10.199,10.199v204.495c0,5.633,4.567,10.199,10.199,10.199
	s10.199-4.566,10.199-10.199V166.264C158.238,160.631,153.671,156.065,148.038,156.065z"/>
<path d="M218.146,156.065c-5.632,0-10.199,4.566-10.199,10.199v204.495c0,5.633,4.567,10.199,10.199,10.199
	s10.199-4.566,10.199-10.199V166.264C228.345,160.631,223.778,156.065,218.146,156.065z"/>
<path d="M288.252,156.065c-5.632,0-10.199,4.566-10.199,10.199v204.495c0,5.633,4.567,10.199,10.199,10.199
	c5.632,0,10.199-4.566,10.199-10.199V166.264C298.451,160.631,293.885,156.065,288.252,156.065z"/>
<path d="M358.358,156.065c-5.632,0-10.199,4.566-10.199,10.199v204.495c0,5.633,4.567,10.199,10.199,10.199
	c5.632,0,10.199-4.566,10.199-10.199V166.264C368.557,160.631,363.991,156.065,358.358,156.065z"/>
<path d="M485.251,117.562l-48.959-2.611V97.668c0-5.633-4.567-10.199-10.199-10.199H10.199C4.567,87.468,0,92.035,0,97.668v316.665
	c0,5.633,4.567,10.199,10.199,10.199h415.894c5.632,0,10.199-4.566,10.199-10.199v-227.55l48.959-2.611
	c14.999-0.8,26.748-13.193,26.748-28.214v-10.181C512,130.755,500.251,118.362,485.251,117.562z M415.894,107.867v6.643H20.398
	v-6.643H415.894z M415.894,404.133H20.398V134.908h395.496V404.133z M491.602,155.957c0,4.177-3.267,7.622-7.436,7.844
	l-47.873,2.553v-30.976l47.873,2.553c4.169,0.222,7.436,3.668,7.436,7.844V155.957z"/>
<g>
</g>
<g>
</g>
<g>
</g>
<g>
</g>
<g>
</g>
<g>
</g>
<g>
</g>
<g>
</g>
<g>
</g>
<g>
</g>
<g>
</g>
<g>
</g>
<g>
</g>
<g>
</g>
<g>
</g>
</svg>
